<mxfile host="app.diagrams.net" modified="2023-05-16T09:06:28.716Z" agent="Mozilla/5.0 (Windows NT 10.0; Win64; x64) AppleWebKit/537.36 (KHTML, like Gecko) Chrome/113.0.0.0 Safari/537.36" etag="oaLHtvokrC2yg00hHNhg" version="21.2.9" type="device">
  <diagram name="1 oldal" id="e5YgOUtdldpFzFA5LBqN">
    <mxGraphModel dx="1235" dy="578" grid="1" gridSize="10" guides="1" tooltips="1" connect="1" arrows="1" fold="1" page="1" pageScale="1" pageWidth="827" pageHeight="1169" math="0" shadow="0">
      <root>
        <mxCell id="0" />
        <mxCell id="1" parent="0" />
        <mxCell id="oVmHiGMbWIKsk11mycGa-1" value="" style="ellipse;whiteSpace=wrap;html=1;aspect=fixed;" vertex="1" parent="1">
          <mxGeometry x="374" y="10" width="80" height="80" as="geometry" />
        </mxCell>
        <mxCell id="oVmHiGMbWIKsk11mycGa-2" value="&lt;font style=&quot;font-size: 40px;&quot;&gt;A&lt;/font&gt;" style="text;html=1;strokeColor=none;fillColor=none;align=center;verticalAlign=middle;whiteSpace=wrap;rounded=0;" vertex="1" parent="1">
          <mxGeometry x="384" y="35" width="60" height="30" as="geometry" />
        </mxCell>
        <mxCell id="oVmHiGMbWIKsk11mycGa-14" value="" style="ellipse;whiteSpace=wrap;html=1;aspect=fixed;" vertex="1" parent="1">
          <mxGeometry x="40" y="155" width="80" height="80" as="geometry" />
        </mxCell>
        <mxCell id="oVmHiGMbWIKsk11mycGa-15" value="&lt;font style=&quot;font-size: 40px;&quot;&gt;K&lt;/font&gt;" style="text;html=1;strokeColor=none;fillColor=none;align=center;verticalAlign=middle;whiteSpace=wrap;rounded=0;" vertex="1" parent="1">
          <mxGeometry x="50" y="180" width="60" height="30" as="geometry" />
        </mxCell>
        <mxCell id="oVmHiGMbWIKsk11mycGa-16" value="" style="ellipse;whiteSpace=wrap;html=1;aspect=fixed;" vertex="1" parent="1">
          <mxGeometry x="374" y="155" width="80" height="80" as="geometry" />
        </mxCell>
        <mxCell id="oVmHiGMbWIKsk11mycGa-17" value="&lt;font style=&quot;font-size: 40px;&quot;&gt;S&lt;/font&gt;" style="text;html=1;strokeColor=none;fillColor=none;align=center;verticalAlign=middle;whiteSpace=wrap;rounded=0;" vertex="1" parent="1">
          <mxGeometry x="384" y="180" width="60" height="30" as="geometry" />
        </mxCell>
        <mxCell id="oVmHiGMbWIKsk11mycGa-18" value="" style="ellipse;whiteSpace=wrap;html=1;aspect=fixed;" vertex="1" parent="1">
          <mxGeometry x="710" y="155" width="80" height="80" as="geometry" />
        </mxCell>
        <mxCell id="oVmHiGMbWIKsk11mycGa-19" value="&lt;font style=&quot;font-size: 40px;&quot;&gt;Z&lt;/font&gt;" style="text;html=1;strokeColor=none;fillColor=none;align=center;verticalAlign=middle;whiteSpace=wrap;rounded=0;" vertex="1" parent="1">
          <mxGeometry x="720" y="180" width="60" height="30" as="geometry" />
        </mxCell>
        <mxCell id="oVmHiGMbWIKsk11mycGa-22" value="" style="ellipse;whiteSpace=wrap;html=1;aspect=fixed;" vertex="1" parent="1">
          <mxGeometry x="710" y="325" width="80" height="80" as="geometry" />
        </mxCell>
        <mxCell id="oVmHiGMbWIKsk11mycGa-23" value="&lt;font style=&quot;font-size: 40px;&quot;&gt;ZS&lt;/font&gt;" style="text;html=1;strokeColor=none;fillColor=none;align=center;verticalAlign=middle;whiteSpace=wrap;rounded=0;" vertex="1" parent="1">
          <mxGeometry x="720" y="350" width="60" height="30" as="geometry" />
        </mxCell>
        <mxCell id="oVmHiGMbWIKsk11mycGa-24" value="" style="ellipse;whiteSpace=wrap;html=1;aspect=fixed;" vertex="1" parent="1">
          <mxGeometry x="374" y="310" width="80" height="80" as="geometry" />
        </mxCell>
        <mxCell id="oVmHiGMbWIKsk11mycGa-25" value="&lt;font style=&quot;font-size: 40px;&quot;&gt;KZ&lt;/font&gt;" style="text;html=1;strokeColor=none;fillColor=none;align=center;verticalAlign=middle;whiteSpace=wrap;rounded=0;" vertex="1" parent="1">
          <mxGeometry x="384" y="335" width="60" height="30" as="geometry" />
        </mxCell>
        <mxCell id="oVmHiGMbWIKsk11mycGa-26" value="" style="ellipse;whiteSpace=wrap;html=1;aspect=fixed;" vertex="1" parent="1">
          <mxGeometry x="30" y="325" width="80" height="80" as="geometry" />
        </mxCell>
        <mxCell id="oVmHiGMbWIKsk11mycGa-27" value="&lt;font style=&quot;font-size: 40px;&quot;&gt;KS&lt;/font&gt;" style="text;html=1;strokeColor=none;fillColor=none;align=center;verticalAlign=middle;whiteSpace=wrap;rounded=0;" vertex="1" parent="1">
          <mxGeometry x="40" y="350" width="60" height="30" as="geometry" />
        </mxCell>
        <mxCell id="oVmHiGMbWIKsk11mycGa-28" value="" style="ellipse;whiteSpace=wrap;html=1;aspect=fixed;" vertex="1" parent="1">
          <mxGeometry x="374" y="460" width="80" height="80" as="geometry" />
        </mxCell>
        <mxCell id="oVmHiGMbWIKsk11mycGa-29" value="&lt;font style=&quot;font-size: 40px;&quot;&gt;SZ&lt;/font&gt;" style="text;html=1;strokeColor=none;fillColor=none;align=center;verticalAlign=middle;whiteSpace=wrap;rounded=0;" vertex="1" parent="1">
          <mxGeometry x="384" y="485" width="60" height="30" as="geometry" />
        </mxCell>
        <mxCell id="oVmHiGMbWIKsk11mycGa-45" value="" style="endArrow=classic;startArrow=classic;html=1;rounded=0;entryX=1;entryY=1;entryDx=0;entryDy=0;exitX=0;exitY=0;exitDx=0;exitDy=0;strokeWidth=3;" edge="1" parent="1" source="oVmHiGMbWIKsk11mycGa-18" target="oVmHiGMbWIKsk11mycGa-1">
          <mxGeometry width="100" height="100" relative="1" as="geometry">
            <mxPoint x="420" y="300" as="sourcePoint" />
            <mxPoint x="520" y="200" as="targetPoint" />
          </mxGeometry>
        </mxCell>
        <mxCell id="oVmHiGMbWIKsk11mycGa-46" value="" style="endArrow=classic;startArrow=classic;html=1;rounded=0;entryX=0.5;entryY=1;entryDx=0;entryDy=0;exitX=0.5;exitY=0;exitDx=0;exitDy=0;strokeWidth=3;" edge="1" parent="1" source="oVmHiGMbWIKsk11mycGa-16" target="oVmHiGMbWIKsk11mycGa-1">
          <mxGeometry width="100" height="100" relative="1" as="geometry">
            <mxPoint x="682" y="177" as="sourcePoint" />
            <mxPoint x="452" y="88" as="targetPoint" />
          </mxGeometry>
        </mxCell>
        <mxCell id="oVmHiGMbWIKsk11mycGa-47" value="" style="endArrow=classic;startArrow=classic;html=1;rounded=0;entryX=0;entryY=1;entryDx=0;entryDy=0;exitX=1;exitY=0;exitDx=0;exitDy=0;strokeWidth=3;" edge="1" parent="1" source="oVmHiGMbWIKsk11mycGa-14" target="oVmHiGMbWIKsk11mycGa-1">
          <mxGeometry width="100" height="100" relative="1" as="geometry">
            <mxPoint x="424" y="165" as="sourcePoint" />
            <mxPoint x="424" y="100" as="targetPoint" />
          </mxGeometry>
        </mxCell>
        <mxCell id="oVmHiGMbWIKsk11mycGa-48" value="" style="endArrow=classic;startArrow=classic;html=1;rounded=0;entryX=0.5;entryY=0;entryDx=0;entryDy=0;exitX=0.5;exitY=1;exitDx=0;exitDy=0;strokeWidth=3;" edge="1" parent="1" source="oVmHiGMbWIKsk11mycGa-14" target="oVmHiGMbWIKsk11mycGa-26">
          <mxGeometry width="100" height="100" relative="1" as="geometry">
            <mxPoint x="178" y="177" as="sourcePoint" />
            <mxPoint x="396" y="88" as="targetPoint" />
          </mxGeometry>
        </mxCell>
        <mxCell id="oVmHiGMbWIKsk11mycGa-49" value="" style="endArrow=classic;startArrow=classic;html=1;rounded=0;exitX=1;exitY=1;exitDx=0;exitDy=0;strokeWidth=3;entryX=0;entryY=0;entryDx=0;entryDy=0;" edge="1" parent="1" source="oVmHiGMbWIKsk11mycGa-26" target="oVmHiGMbWIKsk11mycGa-28">
          <mxGeometry width="100" height="100" relative="1" as="geometry">
            <mxPoint x="178" y="233" as="sourcePoint" />
            <mxPoint x="210" y="290" as="targetPoint" />
          </mxGeometry>
        </mxCell>
        <mxCell id="oVmHiGMbWIKsk11mycGa-50" value="" style="endArrow=classic;startArrow=classic;html=1;rounded=0;exitX=0.5;exitY=1;exitDx=0;exitDy=0;strokeWidth=3;entryX=0.5;entryY=0;entryDx=0;entryDy=0;" edge="1" parent="1" source="oVmHiGMbWIKsk11mycGa-24" target="oVmHiGMbWIKsk11mycGa-28">
          <mxGeometry width="100" height="100" relative="1" as="geometry">
            <mxPoint x="268" y="348" as="sourcePoint" />
            <mxPoint x="396" y="442" as="targetPoint" />
          </mxGeometry>
        </mxCell>
        <mxCell id="oVmHiGMbWIKsk11mycGa-51" value="" style="endArrow=classic;startArrow=classic;html=1;rounded=0;exitX=0;exitY=1;exitDx=0;exitDy=0;strokeWidth=3;entryX=1;entryY=0;entryDx=0;entryDy=0;" edge="1" parent="1" source="oVmHiGMbWIKsk11mycGa-22" target="oVmHiGMbWIKsk11mycGa-28">
          <mxGeometry width="100" height="100" relative="1" as="geometry">
            <mxPoint x="424" y="360" as="sourcePoint" />
            <mxPoint x="424" y="430" as="targetPoint" />
          </mxGeometry>
        </mxCell>
        <mxCell id="oVmHiGMbWIKsk11mycGa-52" value="" style="endArrow=classic;startArrow=classic;html=1;rounded=0;exitX=0.5;exitY=1;exitDx=0;exitDy=0;strokeWidth=3;entryX=0.5;entryY=0;entryDx=0;entryDy=0;" edge="1" parent="1" source="oVmHiGMbWIKsk11mycGa-18" target="oVmHiGMbWIKsk11mycGa-22">
          <mxGeometry width="100" height="100" relative="1" as="geometry">
            <mxPoint x="592" y="348" as="sourcePoint" />
            <mxPoint x="452" y="442" as="targetPoint" />
          </mxGeometry>
        </mxCell>
        <mxCell id="oVmHiGMbWIKsk11mycGa-54" value="" style="endArrow=classic;startArrow=classic;html=1;rounded=0;exitX=0;exitY=1;exitDx=0;exitDy=0;strokeWidth=3;entryX=1;entryY=0;entryDx=0;entryDy=0;" edge="1" parent="1" source="oVmHiGMbWIKsk11mycGa-16" target="oVmHiGMbWIKsk11mycGa-26">
          <mxGeometry width="100" height="100" relative="1" as="geometry">
            <mxPoint x="424" y="245" as="sourcePoint" />
            <mxPoint x="424" y="280" as="targetPoint" />
          </mxGeometry>
        </mxCell>
        <mxCell id="oVmHiGMbWIKsk11mycGa-55" value="" style="endArrow=classic;startArrow=classic;html=1;rounded=0;exitX=1;exitY=1;exitDx=0;exitDy=0;strokeWidth=3;entryX=0;entryY=0;entryDx=0;entryDy=0;" edge="1" parent="1" source="oVmHiGMbWIKsk11mycGa-16" target="oVmHiGMbWIKsk11mycGa-22">
          <mxGeometry width="100" height="100" relative="1" as="geometry">
            <mxPoint x="396" y="233" as="sourcePoint" />
            <mxPoint x="268" y="292" as="targetPoint" />
          </mxGeometry>
        </mxCell>
        <mxCell id="oVmHiGMbWIKsk11mycGa-56" value="" style="endArrow=classic;startArrow=classic;html=1;rounded=0;entryX=0;entryY=0;entryDx=0;entryDy=0;exitX=1;exitY=0.5;exitDx=0;exitDy=0;strokeWidth=3;" edge="1" parent="1" source="oVmHiGMbWIKsk11mycGa-14" target="oVmHiGMbWIKsk11mycGa-24">
          <mxGeometry width="100" height="100" relative="1" as="geometry">
            <mxPoint x="178" y="233" as="sourcePoint" />
            <mxPoint x="212" y="292" as="targetPoint" />
          </mxGeometry>
        </mxCell>
        <mxCell id="oVmHiGMbWIKsk11mycGa-57" value="" style="endArrow=classic;startArrow=classic;html=1;rounded=0;entryX=1;entryY=0;entryDx=0;entryDy=0;exitX=0;exitY=0.5;exitDx=0;exitDy=0;strokeWidth=3;" edge="1" parent="1" source="oVmHiGMbWIKsk11mycGa-18" target="oVmHiGMbWIKsk11mycGa-24">
          <mxGeometry width="100" height="100" relative="1" as="geometry">
            <mxPoint x="190" y="205" as="sourcePoint" />
            <mxPoint x="396" y="292" as="targetPoint" />
          </mxGeometry>
        </mxCell>
        <mxCell id="oVmHiGMbWIKsk11mycGa-61" value="&lt;font style=&quot;font-size: 22px;&quot;&gt;TSI&lt;/font&gt;" style="text;html=1;strokeColor=none;fillColor=none;align=center;verticalAlign=middle;whiteSpace=wrap;rounded=0;strokeWidth=7;" vertex="1" parent="1">
          <mxGeometry x="300" y="50" width="60" height="30" as="geometry" />
        </mxCell>
        <mxCell id="oVmHiGMbWIKsk11mycGa-67" value="&lt;font style=&quot;font-size: 22px;&quot;&gt;TSI&lt;/font&gt;" style="text;html=1;strokeColor=none;fillColor=none;align=center;verticalAlign=middle;whiteSpace=wrap;rounded=0;strokeWidth=7;" vertex="1" parent="1">
          <mxGeometry x="310" y="190" width="60" height="30" as="geometry" />
        </mxCell>
        <mxCell id="oVmHiGMbWIKsk11mycGa-68" value="&lt;font style=&quot;font-size: 22px;&quot;&gt;TSN&lt;/font&gt;" style="text;html=1;strokeColor=none;fillColor=none;align=center;verticalAlign=middle;whiteSpace=wrap;rounded=0;strokeWidth=7;" vertex="1" parent="1">
          <mxGeometry x="100" y="110" width="60" height="30" as="geometry" />
        </mxCell>
        <mxCell id="oVmHiGMbWIKsk11mycGa-69" value="&lt;font style=&quot;font-size: 22px;&quot;&gt;TSN&lt;/font&gt;" style="text;html=1;strokeColor=none;fillColor=none;align=center;verticalAlign=middle;whiteSpace=wrap;rounded=0;strokeWidth=7;" vertex="1" parent="1">
          <mxGeometry x="110" y="325" width="60" height="30" as="geometry" />
        </mxCell>
        <mxCell id="oVmHiGMbWIKsk11mycGa-70" value="&lt;font style=&quot;font-size: 22px;&quot;&gt;TSN&lt;/font&gt;" style="text;html=1;strokeColor=none;fillColor=none;align=center;verticalAlign=middle;whiteSpace=wrap;rounded=0;strokeWidth=7;" vertex="1" parent="1">
          <mxGeometry x="454" y="470" width="60" height="30" as="geometry" />
        </mxCell>
        <mxCell id="oVmHiGMbWIKsk11mycGa-71" value="&lt;font style=&quot;font-size: 22px;&quot;&gt;TSI&lt;/font&gt;" style="text;html=1;strokeColor=none;fillColor=none;align=center;verticalAlign=middle;whiteSpace=wrap;rounded=0;strokeWidth=7;" vertex="1" parent="1">
          <mxGeometry x="690" y="405" width="60" height="30" as="geometry" />
        </mxCell>
        <mxCell id="oVmHiGMbWIKsk11mycGa-72" value="&lt;font style=&quot;font-size: 22px;&quot;&gt;FSN&lt;/font&gt;" style="text;html=1;strokeColor=none;fillColor=none;align=center;verticalAlign=middle;whiteSpace=wrap;rounded=0;strokeWidth=7;" vertex="1" parent="1">
          <mxGeometry x="420" y="130" width="60" height="30" as="geometry" />
        </mxCell>
        <mxCell id="oVmHiGMbWIKsk11mycGa-73" value="&lt;font style=&quot;font-size: 22px;&quot;&gt;FSI&lt;/font&gt;" style="text;html=1;strokeColor=none;fillColor=none;align=center;verticalAlign=middle;whiteSpace=wrap;rounded=0;strokeWidth=7;" vertex="1" parent="1">
          <mxGeometry x="414" y="90" width="60" height="30" as="geometry" />
        </mxCell>
        <mxCell id="oVmHiGMbWIKsk11mycGa-74" value="&lt;font style=&quot;font-size: 22px;&quot;&gt;FSN&lt;/font&gt;" style="text;html=1;strokeColor=none;fillColor=none;align=center;verticalAlign=middle;whiteSpace=wrap;rounded=0;strokeWidth=7;" vertex="1" parent="1">
          <mxGeometry x="414" y="430" width="60" height="30" as="geometry" />
        </mxCell>
        <mxCell id="oVmHiGMbWIKsk11mycGa-75" value="&lt;font style=&quot;font-size: 22px;&quot;&gt;FSN&lt;/font&gt;" style="text;html=1;strokeColor=none;fillColor=none;align=center;verticalAlign=middle;whiteSpace=wrap;rounded=0;strokeWidth=7;" vertex="1" parent="1">
          <mxGeometry x="760" y="305" width="60" height="30" as="geometry" />
        </mxCell>
        <mxCell id="oVmHiGMbWIKsk11mycGa-76" value="&lt;font style=&quot;font-size: 22px;&quot;&gt;FSI&lt;/font&gt;" style="text;html=1;strokeColor=none;fillColor=none;align=center;verticalAlign=middle;whiteSpace=wrap;rounded=0;strokeWidth=7;" vertex="1" parent="1">
          <mxGeometry x="760" y="235" width="60" height="30" as="geometry" />
        </mxCell>
        <mxCell id="oVmHiGMbWIKsk11mycGa-77" value="&lt;font style=&quot;font-size: 22px;&quot;&gt;FSI&lt;/font&gt;" style="text;html=1;strokeColor=none;fillColor=none;align=center;verticalAlign=middle;whiteSpace=wrap;rounded=0;strokeWidth=7;" vertex="1" parent="1">
          <mxGeometry x="414" y="390" width="60" height="30" as="geometry" />
        </mxCell>
        <mxCell id="oVmHiGMbWIKsk11mycGa-78" value="&lt;font style=&quot;font-size: 22px;&quot;&gt;HSN&lt;/font&gt;" style="text;html=1;strokeColor=none;fillColor=none;align=center;verticalAlign=middle;whiteSpace=wrap;rounded=0;strokeWidth=7;" vertex="1" parent="1">
          <mxGeometry x="670" y="120" width="60" height="30" as="geometry" />
        </mxCell>
        <mxCell id="oVmHiGMbWIKsk11mycGa-79" value="&lt;font style=&quot;font-size: 22px;&quot;&gt;HSI&lt;/font&gt;" style="text;html=1;strokeColor=none;fillColor=none;align=center;verticalAlign=middle;whiteSpace=wrap;rounded=0;strokeWidth=7;" vertex="1" parent="1">
          <mxGeometry x="454" y="50" width="60" height="30" as="geometry" />
        </mxCell>
        <mxCell id="oVmHiGMbWIKsk11mycGa-80" value="&lt;font style=&quot;font-size: 22px;&quot;&gt;HSN&lt;/font&gt;" style="text;html=1;strokeColor=none;fillColor=none;align=center;verticalAlign=middle;whiteSpace=wrap;rounded=0;strokeWidth=7;" vertex="1" parent="1">
          <mxGeometry x="680" y="290" width="60" height="30" as="geometry" />
        </mxCell>
        <mxCell id="oVmHiGMbWIKsk11mycGa-81" value="&lt;font style=&quot;font-size: 22px;&quot;&gt;HSI&lt;/font&gt;" style="text;html=1;strokeColor=none;fillColor=none;align=center;verticalAlign=middle;whiteSpace=wrap;rounded=0;strokeWidth=7;" vertex="1" parent="1">
          <mxGeometry x="454" y="190" width="60" height="30" as="geometry" />
        </mxCell>
        <mxCell id="oVmHiGMbWIKsk11mycGa-82" value="&lt;font style=&quot;font-size: 22px;&quot;&gt;HSI&lt;/font&gt;" style="text;html=1;strokeColor=none;fillColor=none;align=center;verticalAlign=middle;whiteSpace=wrap;rounded=0;strokeWidth=7;" vertex="1" parent="1">
          <mxGeometry x="130" y="180" width="60" height="30" as="geometry" />
        </mxCell>
        <mxCell id="oVmHiGMbWIKsk11mycGa-83" value="&lt;font style=&quot;font-size: 22px;&quot;&gt;HSN&lt;/font&gt;" style="text;html=1;strokeColor=none;fillColor=none;align=center;verticalAlign=middle;whiteSpace=wrap;rounded=0;strokeWidth=7;" vertex="1" parent="1">
          <mxGeometry x="354" y="280" width="60" height="30" as="geometry" />
        </mxCell>
        <mxCell id="oVmHiGMbWIKsk11mycGa-84" value="&lt;font style=&quot;font-size: 22px;&quot;&gt;TSN&lt;/font&gt;" style="text;html=1;strokeColor=none;fillColor=none;align=center;verticalAlign=middle;whiteSpace=wrap;rounded=0;strokeWidth=7;" vertex="1" parent="1">
          <mxGeometry x="420" y="280" width="60" height="30" as="geometry" />
        </mxCell>
        <mxCell id="oVmHiGMbWIKsk11mycGa-85" value="&lt;font style=&quot;font-size: 22px;&quot;&gt;TSI&lt;/font&gt;" style="text;html=1;strokeColor=none;fillColor=none;align=center;verticalAlign=middle;whiteSpace=wrap;rounded=0;strokeWidth=7;" vertex="1" parent="1">
          <mxGeometry x="630" y="170" width="60" height="30" as="geometry" />
        </mxCell>
        <mxCell id="oVmHiGMbWIKsk11mycGa-87" value="&lt;font style=&quot;font-size: 22px;&quot;&gt;HSN&lt;/font&gt;" style="text;html=1;strokeColor=none;fillColor=none;align=center;verticalAlign=middle;whiteSpace=wrap;rounded=0;strokeWidth=7;" vertex="1" parent="1">
          <mxGeometry x="310" y="470" width="60" height="30" as="geometry" />
        </mxCell>
        <mxCell id="oVmHiGMbWIKsk11mycGa-88" value="&lt;font style=&quot;font-size: 22px;&quot;&gt;HSI&lt;/font&gt;" style="text;html=1;strokeColor=none;fillColor=none;align=center;verticalAlign=middle;whiteSpace=wrap;rounded=0;strokeWidth=7;" vertex="1" parent="1">
          <mxGeometry x="70" y="405" width="60" height="30" as="geometry" />
        </mxCell>
        <mxCell id="oVmHiGMbWIKsk11mycGa-89" value="&lt;font style=&quot;font-size: 22px;&quot;&gt;FSN&lt;/font&gt;" style="text;html=1;strokeColor=none;fillColor=none;align=center;verticalAlign=middle;whiteSpace=wrap;rounded=0;strokeWidth=7;" vertex="1" parent="1">
          <mxGeometry x="10" y="295" width="60" height="30" as="geometry" />
        </mxCell>
        <mxCell id="oVmHiGMbWIKsk11mycGa-90" value="&lt;font style=&quot;font-size: 22px;&quot;&gt;FSI&lt;/font&gt;" style="text;html=1;strokeColor=none;fillColor=none;align=center;verticalAlign=middle;whiteSpace=wrap;rounded=0;strokeWidth=7;" vertex="1" parent="1">
          <mxGeometry x="20" y="230" width="60" height="30" as="geometry" />
        </mxCell>
      </root>
    </mxGraphModel>
  </diagram>
</mxfile>
